<?xml version="1.0" standalone="no"?>
<!DOCTYPE svg PUBLIC "-//W3C//DTD SVG 20010904//EN"
 "http://www.w3.org/TR/2001/REC-SVG-20010904/DTD/svg10.dtd">
<svg version="1.0" xmlns="http://www.w3.org/2000/svg"
 width="357.000000pt" height="267.000000pt" viewBox="0 0 357.000000 267.000000"
 preserveAspectRatio="xMidYMid meet">

<g transform="translate(0.000000,267.000000) scale(0.100000,-0.100000)"
fill="#000000" stroke="none">
<path d="M1715 1893 c-15 -37 -16 -168 -3 -213 36 -118 73 1 44 141 -17 79
-29 101 -41 72z"/>
<path d="M2338 1601 c-135 -118 -458 -252 -703 -293 -33 -5 -231 -13 -440 -18
-408 -8 -449 -13 -503 -64 -25 -24 -26 -15 13 -134 4 -10 10 -10 32 1 67 35
184 48 468 53 462 9 645 46 880 182 90 52 236 191 273 260 13 23 21 42 18 42
-3 0 -20 -13 -38 -29z"/>
<path d="M1650 930 c0 -64 -3 -68 -34 -45 -29 22 -64 18 -91 -10 -20 -19 -25
-34 -25 -75 0 -41 5 -56 25 -75 28 -29 61 -32 93 -9 20 14 26 12 23 -8 0 -5 6
-8 14 -8 13 0 15 23 15 145 0 90 -4 145 -10 145 -6 0 -10 -27 -10 -60z m-11
-95 c30 -62 -30 -136 -84 -101 -13 8 -26 28 -30 44 -18 86 76 134 114 57z"/>
<path d="M979 955 c0 -14 0 -47 0 -75 0 -145 2 -180 11 -180 6 0 10 39 10 97
0 57 4 93 9 88 5 -6 26 -50 46 -98 21 -48 43 -86 49 -84 6 2 29 46 51 98 l40
93 3 -97 c2 -77 6 -97 17 -97 13 0 15 24 15 141 0 108 -3 140 -12 137 -7 -3
-35 -57 -62 -122 -27 -64 -52 -113 -56 -109 -4 4 -29 59 -55 121 -48 112 -64
134 -66 87z"/>
<path d="M1730 960 c0 -13 7 -20 20 -20 13 0 20 7 20 20 0 13 -7 20 -20 20
-13 0 -20 -7 -20 -20z"/>
<path d="M1894 970 c-30 -12 -62 -56 -70 -96 -15 -80 28 -158 93 -170 43 -8
113 11 113 31 0 18 1 18 -45 0 -74 -32 -135 16 -135 105 0 89 55 132 133 105
54 -19 75 -2 24 20 -40 16 -80 18 -113 5z"/>
<path d="M1335 888 c-34 -19 -44 -41 -45 -90 0 -53 20 -83 65 -94 33 -8 87 7
93 25 4 11 -2 12 -24 6 -62 -18 -94 -5 -109 43 -6 21 -4 22 64 22 69 0 71 1
71 25 0 14 -11 37 -25 50 -26 27 -58 31 -90 13z m86 -34 c18 -22 0 -34 -52
-34 -42 0 -50 3 -47 17 7 37 73 49 99 17z"/>
<path d="M1740 800 c0 -60 4 -100 10 -100 6 0 10 40 10 100 0 60 -4 100 -10
100 -6 0 -10 -40 -10 -100z"/>
<path d="M2109 871 c-78 -78 11 -217 99 -155 20 14 22 14 22 0 0 -9 7 -16 15
-16 12 0 15 18 15 100 0 82 -3 100 -15 100 -8 0 -15 -7 -15 -16 0 -14 -2 -14
-22 0 -34 24 -66 19 -99 -13z m96 -16 c33 -32 33 -78 0 -111 -43 -43 -95 -12
-95 56 0 38 14 64 40 73 26 9 30 8 55 -18z"/>
<path d="M2320 800 c0 -82 3 -100 15 -100 12 0 15 15 15 75 0 68 2 76 25 91
13 8 29 13 35 9 5 -3 10 1 10 9 0 20 -19 20 -48 0 -20 -14 -23 -14 -28 0 -15
39 -24 8 -24 -84z"/>
<path d="M2495 888 c-34 -19 -44 -41 -45 -90 0 -53 20 -83 65 -94 33 -8 87 7
93 25 4 11 -2 12 -24 6 -62 -18 -94 -5 -109 43 -6 21 -4 22 64 22 l71 0 0 29
c0 53 -66 87 -115 59z m86 -34 c18 -22 0 -34 -52 -34 -42 0 -50 3 -47 17 7 37
73 49 99 17z"/>
<path d="M1665 505 c0 -36 3 -65 7 -65 5 0 8 29 8 65 0 36 -3 65 -7 65 -5 0
-8 -29 -8 -65z"/>
<path d="M1772 505 c0 -58 2 -64 8 -32 4 21 4 53 0 70 -6 24 -8 15 -8 -38z"/>
<path d="M1330 502 c-3 -34 -2 -62 3 -62 4 0 7 14 7 30 0 28 2 30 39 30 37 0
40 -2 44 -32 2 -18 4 -4 4 32 0 36 -2 53 -4 38 -4 -25 -8 -28 -43 -28 -35 0
-39 3 -42 28 -2 15 -6 -1 -8 -36z"/>
<path d="M1710 540 c-7 -49 7 -100 28 -100 11 0 13 3 5 8 -6 4 -14 19 -18 34
-5 19 -2 29 12 37 16 9 16 10 1 11 -9 0 -19 6 -21 13 -4 8 -6 8 -7 -3z"/>
<path d="M1472 518 c-27 -27 -7 -78 29 -78 10 0 20 4 23 8 2 4 -7 8 -22 7 -17
0 -28 6 -30 18 -3 13 3 17 27 17 33 0 43 23 15 34 -22 8 -28 8 -42 -6z m43 -8
c4 -6 -5 -10 -20 -10 -15 0 -24 4 -20 10 3 6 12 10 20 10 8 0 17 -4 20 -10z"/>
<path d="M1573 522 c-20 -13 -24 -49 -8 -66 9 -9 20 -16 25 -16 21 0 40 14 40
29 -1 14 -2 14 -11 -1 -21 -37 -68 -4 -48 34 12 22 35 23 47 2 8 -14 10 -14
14 3 4 16 0 20 -21 21 -15 0 -32 -2 -38 -6z"/>
<path d="M1813 523 c12 -3 17 -15 17 -44 0 -22 4 -38 9 -34 9 5 7 42 -4 73 -2
6 -12 11 -22 11 -17 -1 -17 -2 0 -6z"/>
<path d="M1932 518 c-27 -27 -7 -78 29 -78 10 0 20 4 23 8 2 4 -8 8 -22 7 -23
0 -27 4 -27 30 0 26 4 30 27 30 14 -1 24 3 22 7 -8 12 -38 10 -52 -4z"/>
<path d="M2022 518 c-26 -26 -7 -79 28 -77 9 0 6 4 -7 9 -16 6 -23 18 -23 35
0 17 7 29 23 35 13 5 16 9 7 9 -9 1 -21 -4 -28 -11z"/>
<path d="M2079 525 c-4 -23 -1 -76 4 -82 4 -3 7 15 7 40 0 26 -2 47 -5 47 -3
0 -5 -2 -6 -5z"/>
<path d="M2120 485 c0 -27 2 -46 4 -44 8 8 10 78 3 85 -4 4 -7 -14 -7 -41z"/>
<path d="M2192 518 c-27 -27 -7 -78 29 -78 10 0 21 4 24 10 3 6 -1 7 -10 4
-16 -6 -45 11 -45 27 0 5 16 9 35 9 19 0 35 4 35 8 0 14 -23 32 -40 32 -9 0
-21 -5 -28 -12z m53 -8 c4 -6 -7 -10 -25 -10 -18 0 -29 4 -25 10 3 6 15 10 25
10 10 0 22 -4 25 -10z"/>
</g>
</svg>
