<?xml version="1.0" encoding="UTF-8"?>
<svg version="1.1" xmlns="http://www.w3.org/2000/svg" width="512" height="153">
<path d="M0 0 C168.96 0 337.92 0 512 0 C512 50.49 512 100.98 512 153 C343.04 153 174.08 153 0 153 C0 102.51 0 52.02 0 0 Z " fill="#FDFDFE" transform="translate(0,0)"/>
<path d="M0 0 C6.27 0 12.54 0 19 0 C22.63 12.21 26.26 24.42 30 37 C33.9074456 25.19846886 33.9074456 25.19846886 37.80834961 13.39477539 C38.29777629 11.92065663 38.78742558 10.44661174 39.27734375 8.97265625 C39.53132935 8.20046753 39.78531494 7.42827881 40.04699707 6.63269043 C41.8859282 1.1140718 41.8859282 1.1140718 43 0 C44.34267413 -0.08631874 45.68974322 -0.10706473 47.03515625 -0.09765625 C47.84404297 -0.09443359 48.65292969 -0.09121094 49.48632812 -0.08789062 C50.33646484 -0.07951172 51.18660156 -0.07113281 52.0625 -0.0625 C52.91650391 -0.05798828 53.77050781 -0.05347656 54.65039062 -0.04882812 C56.76695663 -0.03700373 58.88348685 -0.01906769 61 0 C61.57831484 6.43642565 62.14684291 12.87366528 62.70898438 19.31152344 C62.90081032 21.49563567 63.09477062 23.67956164 63.29101562 25.86328125 C64.34580713 37.61667229 65.26953657 49.19092893 65 61 C60.71 61 56.42 61 52 61 C51.91435791 59.91992676 51.82871582 58.83985352 51.74047852 57.72705078 C51.42223215 53.72735912 51.09854417 49.72812342 50.77319336 45.72900391 C50.63303055 43.99670202 50.49435219 42.26427937 50.35717773 40.53173828 C50.15997394 38.04426509 49.95746999 35.55727227 49.75390625 33.0703125 C49.66321617 31.90461227 49.66321617 31.90461227 49.57069397 30.71536255 C49.30211967 26.7286907 49.30211967 26.7286907 48 23 C44.04 35.54 40.08 48.08 36 61 C32.37 61 28.74 61 25 61 C20.72780852 48.40503781 16.63845934 35.79329252 13 23 C10.92559352 25.07440648 11.46162375 29.32467948 11.24609375 32.19140625 C11.18092056 33.01124496 11.11574738 33.83108368 11.04859924 34.67576599 C10.84062948 37.30436175 10.63900115 39.93340122 10.4375 42.5625 C10.29794222 44.34052751 10.15797369 46.11852282 10.01757812 47.89648438 C9.67361113 52.26396312 9.33533208 56.63185013 9 61 C4.71 61 0.42 61 -4 61 C-4.08901597 53.26951974 -3.77480504 45.68919644 -3.125 37.98828125 C-3.03621582 36.89404343 -2.94743164 35.7998056 -2.85595703 34.67240906 C-2.57478595 31.21875171 -2.28750001 27.76563565 -2 24.3125 C-1.80688513 21.95380929 -1.61417301 19.59508557 -1.421875 17.23632812 C-0.95256848 11.49049356 -0.47778182 5.74513577 0 0 Z " fill="#2626B5" transform="translate(132,41)"/>
<path d="M0 0 C4.62 0 9.24 0 14 0 C14 21.45 14 42.9 14 65 C9.71 65 5.42 65 1 65 C0.67 64.01 0.34 63.02 0 62 C-1.0828125 62.99 -1.0828125 62.99 -2.1875 64 C-7.21895831 67.33438686 -13.24254647 66.80843365 -19 66 C-24.68534962 63.89597298 -28.20332298 60.37822503 -31 55 C-33.47308984 48.56996642 -34.32451299 41.91100832 -32.08984375 35.3125 C-28.93935541 28.50501395 -25.0286728 23.9696791 -18 21 C-15.66796875 20.69921875 -15.66796875 20.69921875 -13.1875 20.6875 C-12.37667969 20.67074219 -11.56585938 20.65398438 -10.73046875 20.63671875 C-8 21 -8 21 -1 24 C-0.67 16.08 -0.34 8.16 0 0 Z " fill="#2B2BB6" transform="translate(286,37)"/>
<path d="M0 0 C5.61166418 3.34608547 7.8670459 7.64903414 9.984375 13.640625 C10.72231402 17.46449083 10.5 21.41808041 10.5 25.3125 C0.6 25.3125 -9.3 25.3125 -19.5 25.3125 C-18.02360997 30.37258639 -18.02360997 30.37258639 -14.5 32.3125 C-10.38790301 32.89561504 -6.68403035 33.11252051 -3.1875 30.75 C-2.630625 30.275625 -2.07375 29.80125 -1.5 29.3125 C2.68179813 29.3125 5.54545517 32.6936989 8.5 35.3125 C3.99590988 40.36254043 0.13427913 42.97367193 -6.55859375 43.59765625 C-13.81416764 43.79057902 -20.51370842 43.75272424 -26.2109375 38.8359375 C-31.01892795 33.69959648 -33.15499773 28.3682344 -33.9375 21.4375 C-33.58402121 14.24067181 -30.88633064 8.15326094 -25.5625 3.3125 C-18.38836846 -2.62077778 -8.5494511 -3.96194075 0 0 Z " fill="#2728B5" transform="translate(488.5,59.6875)"/>
<path d="M0 0 C4.14480128 3.00936574 6.46634666 6.69831832 8.75390625 11.2734375 C8.75390625 15.5634375 8.75390625 19.8534375 8.75390625 24.2734375 C-1.14609375 24.2734375 -11.04609375 24.2734375 -21.24609375 24.2734375 C-20.86231593 29.1351665 -20.86231593 29.1351665 -18.4609375 30.56640625 C-14.72033322 31.76049686 -11.125911 31.7679923 -7.24609375 31.2734375 C-5.57275336 30.28464545 -3.90457552 29.28695414 -2.24609375 28.2734375 C1.34900071 29.15028981 3.90783736 30.9544184 6.75390625 33.2734375 C6.40399489 35.91470386 6.06375199 37.01178999 3.99609375 38.7578125 C-4.09522101 43.08386198 -12.93327739 44.0581134 -21.84375 41.5390625 C-27.63566394 38.8975167 -30.74179441 34.986592 -32.99609375 29.0859375 C-35.10358489 22.01413389 -35.27361158 15.86657554 -32.30859375 9.0234375 C-29.19738752 3.37882049 -24.42228068 -0.39215958 -18.265625 -2.359375 C-11.7159256 -3.55022944 -5.84939472 -3.33238245 0 0 Z " fill="#2628B5" transform="translate(238.24609375,60.7265625)"/>
<path d="M0 0 C3.09912041 2.63754928 4.71335878 4.14007635 6 8 C6.0846817 10.51368055 6.11601885 12.99869374 6.09765625 15.51171875 C6.0962413 16.23994339 6.09482635 16.96816803 6.09336853 17.71846008 C6.08777659 20.04151539 6.07522562 22.36447388 6.0625 24.6875 C6.05748396 26.26367048 6.05292123 27.83984248 6.04882812 29.41601562 C6.0378098 33.27738098 6.02055074 37.13867408 6 41 C2.37 41 -1.26 41 -5 41 C-5.33 40.01 -5.66 39.02 -6 38 C-6.598125 38.474375 -7.19625 38.94875 -7.8125 39.4375 C-13.1089045 43.22064607 -19.76817795 42.56652928 -26 42 C-29.82079656 40.57601309 -31.73454555 38.39818168 -34 35 C-34.64164553 29.76238186 -34.82533157 24.75831509 -32.5625 19.9375 C-24.94885208 14.18083938 -15.19303822 13.81613924 -6 14 C-7.11854586 10.27385847 -7.11854586 10.27385847 -10 8 C-16.44388517 7.38741859 -21.26905949 8.00994408 -27 11 C-29.475 7.04 -29.475 7.04 -32 3 C-30.41925436 2.18247697 -28.83528777 1.37118003 -27.25 0.5625 C-26.36828125 0.11003906 -25.4865625 -0.34242187 -24.578125 -0.80859375 C-16.78282229 -4.41096849 -7.52869284 -4.23279842 0 0 Z " fill="#2526B5" transform="translate(407,61)"/>
<path d="M0 0 C5.46261638 -0.07428762 10.92493716 -0.12866714 16.38793945 -0.16479492 C18.24541345 -0.17985946 20.10285201 -0.20031509 21.96020508 -0.22631836 C24.63371539 -0.26280459 27.30675444 -0.2797497 29.98046875 -0.29296875 C31.2213752 -0.31619453 31.2213752 -0.31619453 32.48735046 -0.33988953 C38.26603809 -0.34156733 41.42206458 0.67778847 45.79418945 4.61621094 C47.68977768 8.36363418 47.36795423 12.00337735 47.29296875 16.140625 C47.28872391 17.02280701 47.28447906 17.90498901 47.28010559 18.81390381 C47.26333838 21.62624883 47.22568998 24.43787226 47.1875 27.25 C47.17245062 29.1588438 47.15876266 31.06769886 47.14648438 32.9765625 C47.11344127 37.65131889 47.06167255 42.32553718 47 47 C41.72 47 36.44 47 31 47 C31 36.77 31 26.54 31 16 C20.77 16 10.54 16 0 16 C0 10.72 0 5.44 0 0 Z " fill="#2C2DB6" transform="translate(0,74)"/>
<path d="M0 0 C5.28 0 10.56 0 16 0 C16.07428762 5.46261638 16.12866714 10.92493716 16.16479492 16.38793945 C16.17985946 18.24541345 16.20031509 20.10285201 16.22631836 21.96020508 C16.26280459 24.63371539 16.2797497 27.30675444 16.29296875 29.98046875 C16.30845261 30.80773972 16.32393646 31.63501068 16.33988953 32.48735046 C16.34123676 37.12747761 16.11277286 40.29477778 13 44 C10.19468624 45.68989704 8.13229884 46.24767278 4.87402344 46.22705078 C3.67323151 46.22682419 3.67323151 46.22682419 2.44818115 46.22659302 C1.59387512 46.21627045 0.73956909 46.20594788 -0.140625 46.1953125 C-1.02280701 46.1924826 -1.90498901 46.18965271 -2.81390381 46.18673706 C-5.62607499 46.17555961 -8.4379254 46.15045951 -11.25 46.125 C-13.15884956 46.11496705 -15.06770412 46.10584175 -16.9765625 46.09765625 C-21.65116489 46.07562824 -26.32552809 46.04111511 -31 46 C-31 40.72 -31 35.44 -31 30 C-20.77 30 -10.54 30 0 30 C0 20.1 0 10.2 0 0 Z " fill="#2A2BB6" transform="translate(31,21)"/>
<path d="M0 0 C4.95 0 9.9 0 15 0 C15 9.9 15 19.8 15 30 C25.23 30 35.46 30 46 30 C46 35.28 46 40.56 46 46 C40.39499036 46.09903517 34.79049238 46.17154712 29.18481445 46.21972656 C27.2787997 46.23981546 25.37284638 46.26709194 23.46704102 46.30175781 C20.72396674 46.35039642 17.98170875 46.37299579 15.23828125 46.390625 C14.38913651 46.41127014 13.53999176 46.43191528 12.66511536 46.45318604 C8.57333887 46.45473044 6.52792001 46.33259516 2.98510742 44.10058594 C-0.7823537 40.11396246 -0.12877539 36.26782726 -0.09765625 31.0546875 C-0.0962413 30.1696756 -0.09482635 29.2846637 -0.09336853 28.37283325 C-0.0877614 25.54018809 -0.07520771 22.70762136 -0.0625 19.875 C-0.05748592 17.95703239 -0.05292285 16.03906354 -0.04882812 14.12109375 C-0.03778966 9.41403218 -0.02052025 4.7070294 0 0 Z " fill="#08A0E7" transform="translate(55,21)"/>
<path d="M0 0 C1.35444466 0.01061211 1.35444466 0.01061211 2.73625183 0.0214386 C5.61017963 0.04934806 8.48213347 0.11207893 11.35546875 0.17578125 C13.3079145 0.20086863 15.2603909 0.22368103 17.21289062 0.24414062 C21.99033977 0.29916336 26.76632001 0.38541127 31.54296875 0.48828125 C31.54296875 5.43828125 31.54296875 10.38828125 31.54296875 15.48828125 C21.31296875 15.48828125 11.08296875 15.48828125 0.54296875 15.48828125 C0.54296875 25.71828125 0.54296875 35.94828125 0.54296875 46.48828125 C-4.40703125 46.48828125 -9.35703125 46.48828125 -14.45703125 46.48828125 C-14.58080729 40.74088367 -14.67145373 34.99426498 -14.73168945 29.24584961 C-14.75680406 27.29128502 -14.79090256 25.33681408 -14.83422852 23.38256836 C-14.89501559 20.56991457 -14.92327108 17.75850423 -14.9453125 14.9453125 C-14.97111893 14.07429398 -14.99692535 13.20327545 -15.02351379 12.30586243 C-15.02542857 8.14592263 -14.78801379 6.01058704 -12.51757812 2.42773438 C-8.25832309 -0.27133407 -4.94220716 -0.14642709 0 0 Z " fill="#05A1E8" transform="translate(69.45703125,74.51171875)"/>
<path d="M0 0 C0 3.58912412 -0.66436554 4.10857029 -3 6.6875 C-3.556875 7.31011719 -4.11375 7.93273437 -4.6875 8.57421875 C-5.120625 9.04472656 -5.55375 9.51523438 -6 10 C-6.57878906 9.84273437 -7.15757812 9.68546875 -7.75390625 9.5234375 C-11.21744245 8.71628298 -14.49835885 8.4175488 -18 9 C-21.20653576 10.70611088 -21.20653576 10.70611088 -23 14 C-24.0151866 19.07593299 -23.80989899 22.73453283 -21 27.125 C-16.87846537 29.70095914 -14.81531263 29.53503474 -10 29 C-8.68 28.34 -7.36 27.68 -6 27 C-3.69 29.64 -1.38 32.28 1 35 C-2.79122353 39.21247058 -5.83183836 40.76934451 -11.48828125 41.37109375 C-19.1433761 41.50402185 -25.1378967 41.4976202 -31 36 C-35.6172008 31.3827992 -38.09314525 25.52109407 -38.375 19 C-38.05713865 12.23220208 -35.45019416 6.49272746 -30.8515625 1.54296875 C-21.63219268 -6.13983943 -9.87188569 -5.96038381 0 0 Z " fill="#2627B5" transform="translate(368,62)"/>
<path d="M0 0 C0 3.96 0 7.92 0 12 C-2.50651042 12.42317708 -5.01302083 12.84635417 -7.51953125 13.26953125 C-10.23646816 14.06963708 -11.29220958 14.77502384 -13 17 C-14.01587978 20.04763934 -14.19804406 22.34718967 -14.31640625 25.54296875 C-14.35830078 26.61611328 -14.40019531 27.68925781 -14.44335938 28.79492188 C-14.50233398 30.47424805 -14.50233398 30.47424805 -14.5625 32.1875 C-14.60568359 33.31865234 -14.64886719 34.44980469 -14.69335938 35.61523438 C-14.7994901 38.41001025 -14.90025397 41.20498898 -15 44 C-19.29 44 -23.58 44 -28 44 C-28 29.81 -28 15.62 -28 1 C-23.71 1 -19.42 1 -15 1 C-14.67 2.32 -14.34 3.64 -14 5 C-13.21625 4.360625 -12.4325 3.72125 -11.625 3.0625 C-7.51092937 -0.16998406 -5.20565883 -0.09640109 0 0 Z " fill="#2424B5" transform="translate(451,58)"/>
<path d="M0 0 C4.62 0 9.24 0 14 0 C14 14.19 14 28.38 14 43 C9.38 43 4.76 43 0 43 C0 28.81 0 14.62 0 0 Z " fill="#2F30B8" transform="translate(309,59)"/>
<path d="M0 0 C3.43203219 0.8517906 5.0647359 2.79004399 7.15625 5.53515625 C8.69222454 8.60710533 8.3827538 11.13759918 8.15625 14.53515625 C6.57900698 18.5158172 5.74624089 20.14182899 2.15625 22.53515625 C-4.79052871 23.20742516 -4.79052871 23.20742516 -8.78125 20.66015625 C-11.68860752 17.66469698 -12.05782848 15.87008715 -12.21875 11.78515625 C-12.16292523 8.2834206 -11.92877823 5.81536863 -9.90625 2.91015625 C-6.32654503 0.13405852 -4.42798707 -0.28781916 0 0 Z " fill="#F9F9FC" transform="translate(278.84375,69.46484375)"/>
<path d="M0 0 C2 1.625 2 1.625 3 4 C3 7.5625 3 7.5625 2 11 C-0.125 13 -0.125 13 -3 14 C-6.6875 13.875 -6.6875 13.875 -10 13 C-12.48836965 9.26744552 -12.54226552 7.41559065 -12 3 C-8.33340589 -1.4443565 -5.38867153 -1.59664341 0 0 Z " fill="#2828B5" transform="translate(321,39)"/>
<path d="M0 0 C0.99386719 0.00902344 1.98773438 0.01804687 3.01171875 0.02734375 C4.15060547 0.04474609 4.15060547 0.04474609 5.3125 0.0625 C5.03389186 3.6844058 4.73311885 6.37899437 2.8125 9.5 C-0.8585544 11.794409 -4.45993559 11.732059 -8.6875 11.0625 C-9.6775 10.4025 -10.6675 9.7425 -11.6875 9.0625 C-12.0625 6.625 -12.0625 6.625 -11.6875 4.0625 C-8.58459651 -0.07470465 -4.86060887 -0.05718363 0 0 Z " fill="#F3F3F9" transform="translate(396.6875,82.9375)"/>
<path d="M0 0 C3 2.3125 3 2.3125 5 5 C5 5.99 5 6.98 5 8 C-0.94 8 -6.88 8 -13 8 C-12 3 -12 3 -10.4375 1.1875 C-6.95884704 -0.50722837 -3.74133516 -0.80753571 0 0 Z " fill="#F6F7FA" transform="translate(230,68)"/>
<path d="M0 0 C2.1640625 0.42578125 2.1640625 0.42578125 4.7265625 2.73828125 C6.1640625 5.42578125 6.1640625 5.42578125 6.1640625 8.42578125 C0.2240625 8.42578125 -5.7159375 8.42578125 -11.8359375 8.42578125 C-9.00523699 1.34902996 -7.46160179 -0.23089647 0 0 Z " fill="#F8F8FA" transform="translate(479.8359375,67.57421875)"/>
<path d="M0 0 C0.33 0 0.66 0 1 0 C1.10808032 7.09727428 0.93854006 13.96094956 0 21 C-4.29 21 -8.58 21 -13 21 C-13 17.7 -13 14.4 -13 11 C-12.67 11 -12.34 11 -12 11 C-12 13.97 -12 16.94 -12 20 C-8.37 20 -4.74 20 -1 20 C-1 18.68 -1 17.36 -1 16 C-1.66 16 -2.32 16 -3 16 C-3 15.01 -3 14.02 -3 13 C-2.34 13 -1.68 13 -1 13 C-0.67 8.71 -0.34 4.42 0 0 Z " fill="#0809B0" transform="translate(141,81)"/>
</svg>
