<svg version="1.1" id="Layer_1" xmlns="http://www.w3.org/2000/svg" xmlns:xlink="http://www.w3.org/1999/xlink" x="0px" y="0px"
	 width="100%" viewBox="0 0 352 256" enable-background="new 0 0 352 256" xml:space="preserve">
<path fill="#000000" opacity="1.000000" stroke="none" 
	d="
M161.907303,42.798397 
	C170.575394,45.887596 176.345932,52.071003 181.925903,58.986259 
	C184.232956,57.252098 186.155914,55.711597 188.172882,54.305981 
	C201.261261,45.184708 215.259247,43.579067 229.761215,50.188766 
	C247.114563,58.098049 254.235397,76.831139 246.284348,94.188515 
	C238.538773,111.097374 227.969498,125.898361 211.349792,135.397690 
	C206.610199,138.106720 201.754974,140.613419 196.363739,143.531738 
	C202.468399,144.622498 207.969254,144.531708 213.559601,144.381149 
	C235.517303,143.789810 257.319397,140.166367 279.323914,140.876389 
	C295.673401,141.403931 292.649506,141.916290 287.826599,154.136917 
	C286.679626,157.043137 284.928802,158.231537 281.847778,158.291489 
	C256.573700,158.783203 231.277023,160.074142 206.211472,155.263275 
	C200.322784,154.133057 194.323090,153.112579 188.972549,150.484146 
	C184.549118,148.311188 180.426468,148.261459 175.983139,149.513672 
	C163.720016,152.969635 151.112823,153.840668 138.481354,154.263779 
	C124.835144,154.720886 111.178131,154.862854 97.525269,155.111481 
	C89.623337,155.255386 81.969917,156.649750 74.746971,159.883667 
	C72.039848,161.095718 70.680153,160.391068 69.976250,157.701508 
	C69.639694,156.415527 69.297516,155.128677 68.890701,153.863846 
	C66.429726,146.212494 67.349457,144.137787 75.174164,141.383606 
	C81.957443,138.995987 89.001678,137.773285 96.224022,137.761017 
	C114.381943,137.730179 132.539886,137.702957 150.697769,137.664444 
	C153.342758,137.658829 156.024918,137.822784 159.165115,136.011597 
	C156.749466,134.367172 154.589203,132.976013 152.512115,131.470123 
	C135.270660,118.969978 121.952171,103.727577 118.211418,81.901176 
	C116.790466,73.610283 118.111168,65.622856 121.601746,58.031212 
	C126.617180,47.123161 135.927673,42.746696 147.239456,41.848259 
	C152.003036,41.469910 156.879974,40.588776 161.907303,42.798397 
M162.893951,60.615982 
	C158.615479,55.681736 153.874039,51.300159 148.257553,47.881607 
	C146.302811,46.691818 144.957809,46.398232 143.105377,48.301468 
	C136.546555,55.040169 132.598785,63.002781 132.372238,72.352310 
	C131.744644,98.251900 144.219284,117.741669 163.223236,133.880188 
	C165.154648,135.520386 167.229492,135.706741 169.741043,135.157333 
	C177.554520,133.448151 185.225479,131.265518 192.756409,128.618683 
	C206.942719,123.632744 220.684540,117.716187 232.639099,108.341187 
	C235.515091,106.085785 238.356735,103.740303 239.706253,100.115555 
	C243.304626,90.450340 244.016327,80.757179 240.617722,70.828796 
	C236.106216,57.649288 220.787582,46.120457 206.446381,52.171886 
	C200.269302,54.778362 195.535461,58.905643 191.537109,64.251083 
	C188.437683,68.394714 187.680969,72.276978 189.660477,77.186440 
	C191.968201,82.909912 192.591553,89.127357 193.057129,95.253067 
	C193.289932,98.315910 193.570755,102.266266 190.145004,103.637680 
	C186.040359,105.280891 181.540390,106.197792 177.016068,106.181351 
	C174.114120,106.170815 172.459091,104.259483 171.716721,101.669449 
	C170.426941,97.169579 169.369293,92.406075 170.514328,87.909218 
	C173.167725,77.488434 170.963287,68.679886 162.893951,60.615982 
z"/>
<path fill="#000000" opacity="1.000000" stroke="none" 
	d="
M116.469116,190.371948 
	C114.550743,193.151871 114.904083,197.963638 111.205521,197.879105 
	C107.639801,197.797638 107.697662,193.178436 106.211601,190.553055 
	C104.854340,188.155228 103.926140,185.514511 102.051445,183.142609 
	C102.051445,187.078751 102.094330,191.015579 102.029945,194.950668 
	C102.004837,196.485611 101.756447,198.154251 99.638695,197.979446 
	C97.867432,197.833237 97.763016,196.291702 97.755852,194.959335 
	C97.717346,187.802078 97.709206,180.644363 97.754372,173.487213 
	C97.763367,172.061432 97.494415,170.262848 99.620674,169.991547 
	C101.523285,169.748779 102.181267,171.289398 102.775299,172.652328 
	C105.414528,178.707748 107.997520,184.787674 111.203545,192.264236 
	C113.997955,185.877304 116.212669,180.793716 118.448067,175.719254 
	C119.117767,174.199036 119.793510,172.677124 120.564690,171.207520 
	C121.065804,170.252563 121.962868,169.814285 123.066742,169.958664 
	C124.293221,170.119064 124.783501,171.082809 124.794266,172.076141 
	C124.878990,179.894119 124.914551,187.713165 124.876686,195.531448 
	C124.869820,196.949631 124.206421,198.212616 122.456718,198.026489 
	C120.963051,197.867599 120.720154,196.608627 120.707855,195.416672 
	C120.665001,191.265305 120.691277,187.113220 119.850708,182.649185 
	C118.774643,185.107330 117.698570,187.565491 116.469116,190.371948 
z"/>
<path fill="#000000" opacity="1.000000" stroke="none" 
	d="
M150.583679,183.028763 
	C153.499588,176.567047 158.995712,177.705872 163.937744,177.885284 
	C165.110016,175.773438 164.518417,173.725433 164.734802,171.777573 
	C164.888260,170.396286 165.052933,169.040604 166.854187,168.971771 
	C168.616623,168.904449 169.185822,170.131393 169.190811,171.566864 
	C169.218506,179.548416 169.187302,187.530243 169.143112,195.511810 
	C169.137527,196.522934 168.781250,198.048447 167.827850,197.900558 
	C163.058777,197.160828 157.819702,200.440414 153.503326,196.648346 
	C149.450882,193.088135 148.850616,188.429184 150.583679,183.028763 
M158.025543,181.514099 
	C153.704559,183.708237 153.576370,187.452087 154.893982,191.268860 
	C156.214981,195.095413 160.896759,195.867920 163.223236,192.823563 
	C165.073959,190.401749 165.115158,187.611969 164.103973,184.814072 
	C163.209045,182.337860 161.464600,181.096909 158.025543,181.514099 
z"/>
<path fill="#000000" opacity="1.000000" stroke="none" 
	d="
M190.826309,197.886795 
	C182.942688,193.876755 180.074112,185.158447 183.576996,176.898651 
	C186.267227,170.555099 193.539841,167.801849 200.862656,170.445557 
	C202.648788,171.090378 205.482727,171.607498 204.675262,174.106064 
	C203.625961,177.352982 201.479752,174.765625 199.866989,174.163254 
	C195.769287,172.632828 192.034348,172.800247 189.034958,176.367737 
	C186.333466,179.580917 186.166992,188.089874 188.830719,191.490005 
	C191.703995,195.157578 195.511398,195.380630 199.608673,193.915741 
	C200.228287,193.694214 200.786545,193.305405 201.383286,193.014664 
	C202.458176,192.490952 203.600815,191.961258 204.459824,193.271393 
	C205.462219,194.800247 204.468781,195.739716 203.278229,196.512405 
	C199.507721,198.959488 195.360672,198.494324 190.826309,197.886795 
z"/>
<path fill="#000000" opacity="1.000000" stroke="none" 
	d="
M227.312988,193.749573 
	C227.406357,196.975815 226.701431,198.960266 223.344193,197.885071 
	C221.941055,197.435669 220.747910,198.041504 219.462936,198.212158 
	C215.610840,198.723679 212.061829,198.168503 209.880676,194.573532 
	C207.370544,190.436356 207.310333,186.082764 209.680252,181.827560 
	C211.864304,177.906082 215.490723,177.313293 219.534836,177.796341 
	C227.321136,178.726379 227.322800,178.716461 227.320267,186.829376 
	C227.319595,188.980484 227.314957,191.131607 227.312988,193.749573 
M222.735718,186.019547 
	C222.142059,183.012802 220.402191,181.265625 217.250565,181.438538 
	C213.879379,181.623520 212.992691,184.272781 212.516556,186.936081 
	C211.985107,189.908829 212.654709,192.796112 215.579300,194.147125 
	C218.613174,195.548630 221.162384,194.346848 222.359589,191.204941 
	C222.866486,189.874634 222.688110,188.283188 222.735718,186.019547 
z"/>
<path fill="#000000" opacity="1.000000" stroke="none" 
	d="
M145.917786,222.400421 
	C144.847214,222.916580 144.078613,223.479309 143.323044,224.032501 
	C140.901352,223.013428 142.446823,218.781693 138.606491,219.017288 
	C135.207626,219.225784 136.162338,222.536346 134.539658,223.923203 
	C132.044983,221.091019 131.890594,215.952637 134.122650,212.170425 
	C137.712097,218.371124 138.888474,218.368881 143.269806,212.105850 
	C145.420166,213.041138 144.563171,215.276871 145.416595,217.027878 
	C148.111404,215.093811 150.930313,213.221893 154.096146,216.077484 
	C155.616486,217.448792 156.433929,215.883575 157.541901,215.393585 
	C161.880630,213.474747 165.162842,214.735001 165.273682,218.498306 
	C165.331772,220.471085 166.346008,223.234055 163.422928,224.005798 
	C160.875519,224.678360 157.907318,225.023392 156.230209,222.212006 
	C154.548752,219.393295 152.546097,219.498566 149.992325,220.653427 
	C150.722794,223.594254 153.133316,220.491592 154.073883,222.123703 
	C151.981064,225.140823 150.739761,225.194916 145.917786,222.400421 
M161.987244,218.263672 
	C160.384048,216.736420 159.310043,217.418594 158.722900,219.182770 
	C158.307968,220.429520 158.818802,221.745911 160.129440,221.839432 
	C162.132721,221.982361 162.397842,220.407440 161.987244,218.263672 
z"/>
<path fill="#000000" opacity="1.000000" stroke="none" 
	d="
M140.521484,194.555359 
	C141.841568,194.195557 142.778763,193.842331 143.740097,193.576263 
	C144.764679,193.292709 145.765167,193.278976 146.207062,194.516174 
	C146.622025,195.678040 145.917969,196.361099 145.077423,197.001053 
	C142.210007,199.184174 134.727234,198.719223 131.881088,196.160141 
	C128.492599,193.113464 127.704269,186.792191 130.147675,182.260773 
	C132.271042,178.322906 136.796432,176.582016 141.329086,178.039566 
	C143.845444,178.848740 145.611313,180.482880 146.537079,183.032776 
	C147.805374,186.526001 147.120895,188.436890 142.932617,188.412811 
	C140.001709,188.395950 136.957199,187.750961 133.854584,189.207687 
	C133.745667,193.663376 136.296631,194.856079 140.521484,194.555359 
M138.479828,184.679428 
	C139.694839,184.510315 141.152344,185.173386 141.997650,183.686142 
	C139.089676,180.294296 137.344925,180.373444 135.055908,183.982224 
	C135.778458,184.919495 136.833084,184.565796 138.479828,184.679428 
z"/>
<path fill="#000000" opacity="1.000000" stroke="none" 
	d="
M258.281677,198.119064 
	C253.472305,198.565430 249.048538,198.776123 246.409836,194.217133 
	C244.049911,190.139832 244.157440,185.929306 246.430222,181.843246 
	C248.501541,178.119461 251.974579,177.298004 255.866653,177.776733 
	C259.340912,178.204086 261.577515,180.209274 262.651917,183.558914 
	C263.630646,186.610352 263.020935,188.335281 259.372864,188.376312 
	C256.267273,188.411270 253.081390,187.776978 250.052032,188.915314 
	C250.203445,193.843262 252.465927,195.465424 257.425049,194.448761 
	C259.005219,194.124786 261.129456,191.968292 262.089722,194.641357 
	C262.965240,197.078506 260.148529,197.183960 258.281677,198.119064 
M252.378235,184.651703 
	C254.255844,184.425613 256.319977,185.383286 258.285461,183.644012 
	C256.986969,180.837677 254.671371,181.075241 252.478409,181.739487 
	C251.304810,182.094955 249.918839,183.058502 252.378235,184.651703 
z"/>
<path fill="#000000" opacity="1.000000" stroke="none" 
	d="
M170.074142,218.720856 
	C169.753220,220.689316 170.390167,222.710312 167.676697,224.221161 
	C165.838531,219.677994 166.931107,215.418610 167.449951,210.898453 
	C169.533722,214.161316 173.529922,211.524963 175.408997,214.219238 
	C177.507339,214.206192 176.568832,211.043106 178.865021,211.075211 
	C181.207016,215.113892 189.964462,216.104050 185.140625,223.981491 
	C181.559280,222.924179 184.742950,219.150909 182.549698,217.818604 
	C181.343674,217.569336 180.644394,218.154541 180.527222,218.985565 
	C180.126648,221.826660 180.099243,224.524643 175.847656,224.364258 
	C171.852478,224.213547 171.354797,221.738632 170.978424,218.802444 
	C170.957672,218.640457 170.920868,218.458038 170.827988,218.331924 
	C170.531021,217.928635 170.281158,217.978470 170.074142,218.720856 
z"/>
<path fill="#000000" opacity="1.000000" stroke="none" 
	d="
M236.292389,195.711380 
	C234.581650,199.220520 232.624176,198.688232 232.319321,195.754349 
	C231.774521,190.511002 232.061920,185.177551 232.082458,179.882095 
	C232.086639,178.805359 232.906479,177.696304 233.934189,177.999588 
	C236.616714,178.791245 239.152496,177.606369 241.754791,177.792831 
	C242.606674,177.853882 243.398834,178.123566 243.684570,179.049637 
	C243.969604,179.973434 243.640610,180.895233 242.725937,180.986359 
	C235.617142,181.694611 236.535416,187.042358 236.386063,191.783905 
	C236.349564,192.942535 236.354233,194.102478 236.292389,195.711380 
z"/>
<path fill="#000000" opacity="1.000000" stroke="none" 
	d="
M200.992859,217.011322 
	C201.787170,216.419739 202.499588,215.594604 203.391632,215.281845 
	C205.746948,214.456055 208.554901,213.736481 210.266739,215.867706 
	C211.845779,217.833633 211.636703,220.836594 210.398071,222.955627 
	C209.021561,225.310501 206.263016,224.352829 204.062134,224.043350 
	C203.188278,223.920471 202.424561,223.014496 201.310455,222.236877 
	C201.010223,222.008728 201.026688,222.029739 200.999176,221.609482 
	C200.985550,219.786880 200.999420,218.384537 201.008270,216.989044 
	C201.003265,216.995880 200.992859,217.011307 200.992859,217.011322 
z"/>
<path fill="#000000" opacity="1.000000" stroke="none" 
	d="
M173.768036,183.181061 
	C174.049072,180.894821 173.026703,178.124435 176.012466,178.034653 
	C179.138763,177.940628 178.250671,180.751038 178.292374,182.545197 
	C178.388962,186.698792 178.308365,190.857574 178.241272,195.013306 
	C178.219910,196.336380 178.197784,197.873657 176.394821,198.037140 
	C174.369370,198.220825 173.872986,196.739700 173.841125,195.129364 
	C173.765549,191.306702 173.784241,187.482208 173.768036,183.181061 
z"/>
<path fill="#000000" opacity="1.000000" stroke="none" 
	d="
M222.179901,214.753250 
	C224.726212,214.626068 226.884796,215.050903 227.174377,217.484100 
	C227.613617,221.174713 223.281982,218.879929 222.243866,220.920685 
	C223.070175,223.534470 225.381699,220.649734 226.712799,222.524612 
	C226.096191,225.050430 223.866867,224.328064 222.151138,224.201355 
	C220.093567,224.049393 218.866623,222.657150 218.489975,220.677277 
	C217.951660,217.847443 218.997772,215.810974 222.179901,214.753250 
z"/>
<path fill="#000000" opacity="1.000000" stroke="none" 
	d="
M201.003433,221.997345 
	C199.094086,225.124649 196.403152,225.131378 193.833786,223.262497 
	C191.524719,221.582977 191.154053,218.934784 192.985291,216.697632 
	C195.212326,213.976990 197.941528,213.683090 200.806152,216.671738 
	C200.992859,217.011307 201.003265,216.995880 200.709991,217.088715 
	C198.704315,217.868362 195.461258,216.161774 195.545883,219.565567 
	C195.625397,222.764648 198.747177,221.358810 200.549316,221.936813 
	C200.702606,221.985992 200.867294,221.999603 201.026688,222.029739 
	C201.026688,222.029739 201.010223,222.008728 201.003433,221.997345 
z"/>
<path fill="#000000" opacity="1.000000" stroke="none" 
	d="
M212.065155,217.329102 
	C213.080627,213.937363 215.255310,214.717804 217.891068,215.216064 
	C215.371719,217.719284 215.394302,221.077271 213.870026,224.216904 
	C211.262924,222.248810 212.067993,219.872894 212.065155,217.329102 
z"/>
<path fill="#000000" opacity="1.000000" stroke="none" 
	d="
M178.166397,173.414276 
	C176.225021,174.529739 174.468369,174.978241 173.750702,172.457016 
	C173.327667,170.970871 173.866333,169.891144 175.622498,169.745804 
	C178.207626,169.531845 178.742615,170.925064 178.166397,173.414276 
z"/>
</svg>